HIERARCHY
ROOT Pelvis
{
	OFFSET 0.000000 0.000000 0.000000
	CHANNELS 6 Xposition Yposition Zposition Xrotation Yrotation Zrotation
	JOINT LeftUpLeg_virtual
	{
		OFFSET 0.000000 0.000000 0.000000
		CHANNELS 3 Xrotation Yrotation Zrotation
		JOINT LeftUpLeg
		{
			OFFSET 18.735201 -5.666702 -4.541200
			CHANNELS 3 Xrotation Yrotation Zrotation
			JOINT LeftLeg
			{
				OFFSET -0.021200 -31.938179 0.493100
				CHANNELS 3 Xrotation Yrotation Zrotation
				JOINT LeftFoot
				{
					OFFSET 0.021200 -31.938179 -4.336299
					CHANNELS 3 Xrotation Yrotation Zrotation
					JOINT LeftToeBase
					{
						OFFSET 0.943001 -26.722000 15.023500
						CHANNELS 3 Xrotation Yrotation Zrotation
						End Site
						{
							OFFSET 0 0 0
						}
					}
				}
			}
		}
	}
	JOINT RightUpLeg_virtual
	{
		OFFSET 0.000000 0.000000 0.000000
		CHANNELS 3 Xrotation Yrotation Zrotation
		JOINT RightUpLeg
		{
			OFFSET -18.735201 -5.666702 -4.541200
			CHANNELS 3 Xrotation Yrotation Zrotation
			JOINT RightLeg
			{
				OFFSET 0.018946 -31.938133 0.493100
				CHANNELS 3 Xrotation Yrotation Zrotation
				JOINT RightFoot
				{
					OFFSET -0.018946 -31.938126 -4.336299
					CHANNELS 3 Xrotation Yrotation Zrotation
					JOINT RightToeBase
					{
						OFFSET -0.943001 -26.722004 15.023500
						CHANNELS 3 Xrotation Yrotation Zrotation
						End Site
						{
							OFFSET 0 0 0
						}
					}
				}
			}
		}
	}
	JOINT Hips_virtual
	{
		OFFSET 0.000000 0.000000 0.000000
		CHANNELS 3 Xrotation Yrotation Zrotation
		JOINT Hips
		{
			OFFSET -0.000000 -0.000000 -0.000000
			CHANNELS 3 Xrotation Yrotation Zrotation
			JOINT Spine
			{
				OFFSET 0.000000 10.199997 -0.299500
				CHANNELS 3 Xrotation Yrotation Zrotation
				JOINT Spine1
				{
					OFFSET 0.000000 11.900002 -1.516600
					CHANNELS 3 Xrotation Yrotation Zrotation
					JOINT Spine2
					{
						OFFSET 0.000000 13.600006 -2.842500
						CHANNELS 3 Xrotation Yrotation Zrotation
						JOINT Neck_virtual
						{
							OFFSET 0.000000 0.000000 0.000000
							CHANNELS 3 Xrotation Yrotation Zrotation
							JOINT Neck
							{
								OFFSET 0.000000 9.624100 -2.890100
								CHANNELS 3 Xrotation Yrotation Zrotation
								JOINT Head
								{
									OFFSET 0.000000 14.068802 -1.351900
									CHANNELS 3 Xrotation Yrotation Zrotation
									End Site
									{
										OFFSET 0 0 0
									}
								}
							}
						}
						JOINT LeftShoulder_virtual
						{
							OFFSET 0.000000 0.000000 0.000000
							CHANNELS 3 Xrotation Yrotation Zrotation
							JOINT LeftShoulder
							{
								OFFSET 15.263000 10.923401 -0.547700
								CHANNELS 3 Xrotation Yrotation Zrotation
								JOINT LeftArm
								{
									OFFSET 25.438599 -2.830597 -13.032500
									CHANNELS 3 Xrotation Yrotation Zrotation
									JOINT LeftForeArm
									{
										OFFSET 29.960503 0.000000 0.000000
										CHANNELS 3 Xrotation Yrotation Zrotation
										JOINT LeftHand
										{
											OFFSET 27.849251 0.000000 0.000000
											CHANNELS 3 Xrotation Yrotation Zrotation
											End Site
											{
												OFFSET 0 0 0
											}
										}
									}
								}
							}
						}
						JOINT RightShoulder_virtual
						{
							OFFSET 0.000000 0.000000 0.000000
							CHANNELS 3 Xrotation Yrotation Zrotation
							JOINT RightShoulder
							{
								OFFSET -15.263000 10.923401 -0.547700
								CHANNELS 3 Xrotation Yrotation Zrotation
								JOINT RightArm
								{
									OFFSET -25.438599 -2.830597 -13.032500
									CHANNELS 3 Xrotation Yrotation Zrotation
									JOINT RightForeArm
									{
										OFFSET -29.960503 0.000000 0.000000
										CHANNELS 3 Xrotation Yrotation Zrotation
										JOINT RightHand
										{
											OFFSET -27.849251 0.000000 0.000000
											CHANNELS 3 Xrotation Yrotation Zrotation
											End Site
											{
												OFFSET 0 0 0
											}
										}
									}
								}
							}
						}
					}
				}
			}
		}
	}
}
MOTION
Frames: 7
Frame Time: 0.03333333
-7.589262 114.663361 24.420179 0.000000 0.000000 0.000000 19.155079 -69.841143 28.987610 -83.852586 -21.841236 26.815782 67.174897 6.191568 -15.111227 19.377194 5.441247 1.428768 0.000000 0.000000 0.000000 19.098604 -68.509482 28.202657 -124.741753 -8.384791 -2.643473 107.405736 12.262310 30.961746 35.422071 -10.689570 60.663425 0.000000 0.000000 0.000000 19.037103 -68.162132 28.959954 -0.753593 -0.128693 -0.080527 27.703018 -2.441963 -14.993770 12.594621 -2.029097 -3.049908 0.000000 0.000000 0.000000 12.360256 0.342080 -3.209283 -1.440972 8.204613 -0.799750 0.000000 0.000000 0.000000 12.911570 0.905278 -4.155972 7.541922 -17.178561 4.802738 -50.895052 5.279904 -11.948024 46.587221 -35.752318 39.256905 0.000000 0.000000 0.000000 9.901897 0.875293 -2.818043 28.661950 20.344289 -24.949955 -70.943884 -2.880777 3.473629 27.017274 44.911943 -15.959311 0.000000 0.000000 0.000000 
-7.568803 114.588455 24.426228 0.000000 0.000000 0.000000 19.568323 -69.949743 29.459166 -83.824644 -21.870826 26.736960 67.003036 6.141042 -15.159099 19.363267 5.262141 1.092560 0.000000 0.000000 0.000000 19.508630 -68.632828 28.679674 -124.555043 -8.195518 -2.632740 107.451771 12.262116 30.773130 34.987214 -10.575570 60.600689 0.000000 0.000000 0.000000 19.644942 -68.393396 29.597252 -0.751570 -0.127981 -0.079674 27.762079 -2.365576 -15.128398 12.592422 -2.052183 -2.987309 0.000000 0.000000 0.000000 12.345002 0.312270 -3.121393 -1.376180 8.108142 -0.821438 0.000000 0.000000 0.000000 12.806294 0.874843 -4.070233 7.415664 -16.984193 3.838299 -50.219536 5.645287 -12.605072 46.345361 -34.940352 39.047136 0.000000 0.000000 0.000000 9.889022 0.855490 -2.771441 28.544916 21.240789 -24.441202 -70.282148 -4.223479 3.679100 27.846145 44.424551 -17.690731 0.000000 0.000000 0.000000 
-7.527139 114.487305 24.398626 0.000000 0.000000 0.000000 19.834745 -69.998415 29.826917 -83.734479 -21.866477 26.619202 66.699126 6.095976 -15.221266 19.262438 5.039383 0.766904 0.000000 0.000000 0.000000 19.740553 -68.712693 29.013510 -124.334974 -7.988333 -2.621861 107.497574 12.231125 30.590740 34.569298 -10.453552 60.519902 0.000000 0.000000 0.000000 20.111719 -68.586574 30.138374 -0.749920 -0.131438 -0.079687 27.799473 -2.338747 -15.266026 12.555244 -2.112787 -2.889847 0.000000 0.000000 0.000000 12.304189 0.242681 -2.995337 -1.286842 7.987613 -0.838086 0.000000 0.000000 0.000000 12.682990 0.803490 -3.957979 7.321776 -16.779837 3.038298 -49.602377 6.360355 -13.329628 46.155369 -34.164603 38.937341 0.000000 0.000000 0.000000 9.816719 0.798340 -2.686100 28.469755 22.046345 -24.114758 -69.804977 -5.700631 4.175559 28.514843 43.635685 -19.341494 0.000000 0.000000 0.000000 
-7.476699 114.367149 24.339415 0.000000 0.000000 0.000000 19.955499 -69.991120 30.095630 -83.615838 -21.809706 26.494659 66.329804 6.067854 -15.299207 19.127999 4.843362 0.517906 0.000000 0.000000 0.000000 19.787504 -68.741742 29.206285 -124.114045 -7.764807 -2.620702 107.560057 12.176405 30.404481 34.263572 -10.288054 60.413699 0.000000 0.000000 0.000000 20.401968 -68.722222 30.558680 -0.749126 -0.138528 -0.079960 27.802845 -2.367231 -15.414306 12.484028 -2.209994 -2.766097 0.000000 0.000000 0.000000 12.238178 0.137943 -2.842228 -1.180405 7.854141 -0.850183 0.000000 0.000000 0.000000 12.555010 0.695903 -3.819974 7.246274 -16.594986 2.375632 -48.975735 7.467800 -14.105422 46.083232 -33.515574 38.960147 0.000000 0.000000 0.000000 9.697837 0.703007 -2.572986 28.436967 22.791918 -23.894143 -69.452703 -7.201665 4.827593 28.946670 42.624936 -20.775827 0.000000 0.000000 0.000000 
-7.419286 114.237488 24.267050 0.000000 0.000000 0.000000 19.979509 -69.963834 30.308900 -83.509506 -21.699755 26.351917 65.985542 6.057133 -15.388727 19.050195 4.734102 0.381441 0.000000 0.000000 0.000000 19.719279 -68.728341 29.325544 -123.901558 -7.547538 -2.644404 107.639608 12.091028 30.233798 34.014738 -10.196399 60.262295 0.000000 0.000000 0.000000 20.519167 -68.790749 30.862855 -0.748611 -0.146147 -0.079878 27.770870 -2.449626 -15.581596 12.379335 -2.338263 -2.634992 0.000000 0.000000 0.000000 12.140834 0.004580 -2.678330 -1.068126 7.713174 -0.864317 0.000000 0.000000 0.000000 12.426545 0.560734 -3.667561 7.167415 -16.428355 1.781790 -48.284427 8.950895 -14.832295 46.222007 -33.112258 39.183101 0.000000 0.000000 0.000000 9.558140 0.572431 -2.449260 28.409402 23.496168 -23.661788 -69.093907 -8.625212 5.387503 29.134367 41.576137 -21.895343 0.000000 0.000000 0.000000 
-7.357444 114.102844 24.198374 0.000000 0.000000 0.000000 19.974934 -69.949436 30.524539 -83.431717 -21.525946 26.195888 65.715456 6.060414 -15.482517 19.043288 4.724531 0.353884 0.000000 0.000000 0.000000 19.646122 -68.722734 29.476532 -123.691611 -7.342824 -2.694055 107.762271 11.975718 30.090381 33.679359 -10.318482 60.055975 0.000000 0.000000 0.000000 20.507127 -68.805577 31.077405 -0.749168 -0.150767 -0.079717 27.717072 -2.577378 -15.763110 12.251126 -2.491068 -2.505759 0.000000 0.000000 0.000000 12.016142 -0.150973 -2.520263 -0.955477 7.572658 -0.882817 0.000000 0.000000 0.000000 12.289778 0.407644 -3.509055 7.067622 -16.242166 1.202870 -47.561459 10.777791 -15.394867 46.573113 -32.987853 39.610675 0.000000 0.000000 0.000000 9.416629 0.412810 -2.328574 28.364567 24.141493 -23.371150 -68.643627 -9.891201 5.712183 29.117216 40.626904 -22.682177 0.000000 0.000000 0.000000 
-7.297307 113.977646 24.141413 0.000000 0.000000 0.000000 19.986307 -69.975766 30.778397 -83.362466 -21.280566 26.039273 65.498208 6.076004 -15.575084 19.073184 4.782415 0.385806 0.000000 0.000000 0.000000 19.619015 -68.748245 29.703133 -123.491009 -7.159275 -2.789585 107.949521 11.859046 29.977181 33.204849 -10.676218 59.819896 0.000000 0.000000 0.000000 20.414324 -68.792764 31.239479 -0.750469 -0.151983 -0.080494 27.649683 -2.732527 -15.934814 12.107411 -2.661090 -2.386656 0.000000 0.000000 0.000000 11.881719 -0.318586 -2.381247 -0.845938 7.434547 -0.904243 0.000000 0.000000 0.000000 12.146698 0.244202 -3.356813 6.937581 -15.994464 0.577039 -46.832971 12.848061 -15.723792 47.034892 -33.118716 40.163223 0.000000 0.000000 0.000000 9.282116 0.237777 -2.220296 28.275588 24.664768 -23.040079 -68.189207 -10.919476 5.918846 28.900248 39.827899 -23.131861 0.000000 0.000000 0.000000 
